<?xml version="1.0" encoding="UTF-8"?>
<!DOCTYPE svg PUBLIC "-//W3C//DTD SVG 1.1//EN" "http://www.w3.org/Graphics/SVG/1.1/DTD/svg11.dtd">
<svg xmlns="http://www.w3.org/2000/svg" version="1.1" width="631px" height="500px" style="shape-rendering:geometricPrecision; text-rendering:geometricPrecision; image-rendering:optimizeQuality; fill-rule:evenodd; clip-rule:evenodd" xmlns:xlink="http://www.w3.org/1999/xlink">
<g><path style="opacity:0.996" fill="#f5821f" d="M 301.5,13.5 C 357.789,9.88221 398.289,33.2155 423,83.5C 428.853,97.243 432.019,111.576 432.5,126.5C 428.833,126.5 425.167,126.5 421.5,126.5C 416.886,73.432 388.886,39.932 337.5,26C 285.984,19.0078 247.817,38.1744 223,83.5C 216.514,97.109 213.014,111.442 212.5,126.5C 208.833,126.5 205.167,126.5 201.5,126.5C 204.529,80.9059 225.862,47.0726 265.5,25C 277.136,19.6197 289.136,15.7863 301.5,13.5 Z"/></g>
<g><path style="opacity:0.972" fill="#00a4ca" d="M 184.5,129.5 C 197.5,129.5 210.5,129.5 223.5,129.5C 223.5,187.5 223.5,245.5 223.5,303.5C 215.107,303.83 206.773,303.33 198.5,302C 192.333,299.833 188.167,295.667 186,289.5C 184.522,236.205 184.022,182.871 184.5,129.5 Z M 205.5,149.5 C 208.833,149.5 212.167,149.5 215.5,149.5C 215.5,153.167 215.5,156.833 215.5,160.5C 211.818,160.665 208.152,160.499 204.5,160C 205.456,156.606 205.789,153.106 205.5,149.5 Z M 191.5,193.5 C 195.167,193.5 198.833,193.5 202.5,193.5C 202.5,197.167 202.5,200.833 202.5,204.5C 198.833,204.5 195.167,204.5 191.5,204.5C 191.5,200.833 191.5,197.167 191.5,193.5 Z M 206.5,266.5 C 210.167,266.5 213.833,266.5 217.5,266.5C 217.5,270.167 217.5,273.833 217.5,277.5C 213.833,277.5 210.167,277.5 206.5,277.5C 206.5,273.833 206.5,270.167 206.5,266.5 Z"/></g>
<g><path style="opacity:0.983" fill="#e90d8b" d="M 410.5,129.5 C 423.5,129.5 436.5,129.5 449.5,129.5C 449.978,182.871 449.478,236.205 448,289.5C 445.833,295.667 441.667,299.833 435.5,302C 427.227,303.33 418.893,303.83 410.5,303.5C 410.5,245.5 410.5,187.5 410.5,129.5 Z M 430.5,149.5 C 434.167,149.5 437.833,149.5 441.5,149.5C 441.5,153.167 441.5,156.833 441.5,160.5C 437.833,160.5 434.167,160.5 430.5,160.5C 430.5,156.833 430.5,153.167 430.5,149.5 Z M 432.5,193.5 C 436.167,193.5 439.833,193.5 443.5,193.5C 443.5,197.167 443.5,200.833 443.5,204.5C 439.833,204.5 436.167,204.5 432.5,204.5C 432.5,200.833 432.5,197.167 432.5,193.5 Z M 418.5,266.5 C 422.182,266.335 425.848,266.501 429.5,267C 428.544,270.394 428.211,273.894 428.5,277.5C 425.167,277.5 421.833,277.5 418.5,277.5C 418.5,273.833 418.5,270.167 418.5,266.5 Z"/></g>
<g><path style="opacity:0.981" fill="#86c53f" d="M 320.5,139.5 C 333.167,139.5 345.833,139.5 358.5,139.5C 358.5,194.167 358.5,248.833 358.5,303.5C 345.833,303.5 333.167,303.5 320.5,303.5C 320.5,248.833 320.5,194.167 320.5,139.5 Z M 327.5,193.5 C 330.833,193.5 334.167,193.5 337.5,193.5C 337.5,197.167 337.5,200.833 337.5,204.5C 333.818,204.665 330.152,204.499 326.5,204C 327.456,200.606 327.789,197.106 327.5,193.5 Z M 327.5,267.5 C 330.962,266.518 334.629,266.185 338.5,266.5C 338.5,270.167 338.5,273.833 338.5,277.5C 335.167,277.5 331.833,277.5 328.5,277.5C 328.813,273.958 328.479,270.625 327.5,267.5 Z"/></g>
<g><path style="opacity:0.98" fill="#f8a181" d="M 229.5,158.5 C 242.5,158.5 255.5,158.5 268.5,158.5C 268.5,206.833 268.5,255.167 268.5,303.5C 255.587,303.822 242.754,303.489 230,302.5C 229.5,254.501 229.333,206.501 229.5,158.5 Z M 241.5,218.5 C 245.167,218.5 248.833,218.5 252.5,218.5C 252.5,222.167 252.5,225.833 252.5,229.5C 248.833,229.5 245.167,229.5 241.5,229.5C 241.5,225.833 241.5,222.167 241.5,218.5 Z M 251.5,266.5 C 255.167,266.5 258.833,266.5 262.5,266.5C 262.5,270.167 262.5,273.833 262.5,277.5C 258.833,277.5 255.167,277.5 251.5,277.5C 251.5,273.833 251.5,270.167 251.5,266.5 Z"/></g>
<g><path style="opacity:0.976" fill="#824c9e" d="M 365.5,180.5 C 378.5,180.5 391.5,180.5 404.5,180.5C 404.667,221.168 404.5,261.835 404,302.5C 391.246,303.489 378.413,303.822 365.5,303.5C 365.5,262.5 365.5,221.5 365.5,180.5 Z M 372.5,193.5 C 375.833,193.5 379.167,193.5 382.5,193.5C 382.5,197.167 382.5,200.833 382.5,204.5C 378.818,204.665 375.152,204.499 371.5,204C 372.456,200.606 372.789,197.106 372.5,193.5 Z M 387.5,231.5 C 391.167,231.5 394.833,231.5 398.5,231.5C 398.5,235.5 398.5,239.5 398.5,243.5C 394.833,243.5 391.167,243.5 387.5,243.5C 387.5,239.5 387.5,235.5 387.5,231.5 Z"/></g>
<g><path style="opacity:0.982" fill="#cf74b1" d="M 275.5,225.5 C 288.167,225.5 300.833,225.5 313.5,225.5C 313.5,251.5 313.5,277.5 313.5,303.5C 300.587,303.822 287.754,303.489 275,302.5C 274.177,276.761 274.343,251.094 275.5,225.5 Z M 289.5,240.5 C 293.167,240.5 296.833,240.5 300.5,240.5C 300.5,244.5 300.5,248.5 300.5,252.5C 296.833,252.5 293.167,252.5 289.5,252.5C 289.5,248.5 289.5,244.5 289.5,240.5 Z"/></g>
<g><path style="opacity:0.951" fill="#00526f" d="M 279.5,334.5 C 289.58,333.646 299.247,335.146 308.5,339C 315.956,345.644 317.456,353.478 313,362.5C 310.957,364.712 308.791,366.712 306.5,368.5C 319.164,376.332 321.664,386.666 314,399.5C 305.25,406.358 295.25,409.358 284,408.5C 278.831,408.124 273.665,407.791 268.5,407.5C 268.333,383.831 268.5,360.164 269,336.5C 272.603,335.865 276.103,335.198 279.5,334.5 Z M 281.5,345.5 C 286.93,345.161 292.264,345.661 297.5,347C 302.756,351.924 302.756,356.924 297.5,362C 292.382,364.08 287.049,364.913 281.5,364.5C 281.5,358.167 281.5,351.833 281.5,345.5 Z M 281.5,374.5 C 287.345,374.151 293.012,374.984 298.5,377C 306.313,385.941 304.647,392.608 293.5,397C 289.514,397.499 285.514,397.666 281.5,397.5C 281.5,389.833 281.5,382.167 281.5,374.5 Z"/></g>
<g><path style="opacity:0.92" fill="#00526f" d="M 411.5,334.5 C 417.176,334.334 422.843,334.501 428.5,335C 431.149,335.452 433.649,336.286 436,337.5C 436.032,341.742 435.032,345.742 433,349.5C 425.988,345.554 418.821,345.054 411.5,348C 406.159,352.681 406.492,357.015 412.5,361C 418.954,363.727 425.288,366.727 431.5,370C 439.465,376.923 441.632,385.423 438,395.5C 432.141,404.681 423.641,409.014 412.5,408.5C 407.057,408.378 401.724,407.545 396.5,406C 394.777,405.477 393.444,404.477 392.5,403C 393.411,399.855 394.245,396.688 395,393.5C 395.414,393.043 395.914,392.709 396.5,392.5C 405.006,396.988 413.673,397.488 422.5,394C 426.32,390.045 426.487,385.878 423,381.5C 415.341,378.053 407.841,374.219 400.5,370C 391.031,359.397 391.364,349.064 401.5,339C 404.815,337.17 408.149,335.67 411.5,334.5 Z"/></g>
<g><path style="opacity:0.933" fill="#00526f" d="M 17.5,335.5 C 31.8333,335.5 46.1667,335.5 60.5,335.5C 60.5,339.167 60.5,342.833 60.5,346.5C 50.8333,346.5 41.1667,346.5 31.5,346.5C 31.5,352.833 31.5,359.167 31.5,365.5C 40.5,365.5 49.5,365.5 58.5,365.5C 58.5,369.5 58.5,373.5 58.5,377.5C 49.5,377.5 40.5,377.5 31.5,377.5C 31.5,387.5 31.5,397.5 31.5,407.5C 26.8333,407.5 22.1667,407.5 17.5,407.5C 17.5,383.5 17.5,359.5 17.5,335.5 Z"/></g>
<g><path style="opacity:0.939" fill="#00526f" d="M 71.5,335.5 C 76.1667,335.5 80.8333,335.5 85.5,335.5C 85.0733,352.548 85.5733,369.548 87,386.5C 90.7246,396.415 97.5579,399.249 107.5,395C 109.969,392.559 111.802,389.726 113,386.5C 114.427,369.548 114.927,352.548 114.5,335.5C 119.167,335.5 123.833,335.5 128.5,335.5C 128.667,350.837 128.5,366.17 128,381.5C 126.656,399.512 116.99,408.512 99,408.5C 82.541,407.709 73.541,399.043 72,382.5C 71.5001,366.837 71.3334,351.17 71.5,335.5 Z"/></g>
<g><path style="opacity:0.936" fill="#00526f" d="M 142.5,335.5 C 147.167,335.5 151.833,335.5 156.5,335.5C 156.5,355.5 156.5,375.5 156.5,395.5C 166.167,395.5 175.833,395.5 185.5,395.5C 185.5,399.5 185.5,403.5 185.5,407.5C 171.167,407.5 156.833,407.5 142.5,407.5C 142.5,383.5 142.5,359.5 142.5,335.5 Z"/></g>
<g><path style="opacity:0.936" fill="#00526f" d="M 194.5,335.5 C 199.167,335.5 203.833,335.5 208.5,335.5C 208.5,355.5 208.5,375.5 208.5,395.5C 218.167,395.5 227.833,395.5 237.5,395.5C 237.5,399.5 237.5,403.5 237.5,407.5C 223.167,407.5 208.833,407.5 194.5,407.5C 194.5,383.5 194.5,359.5 194.5,335.5 Z"/></g>
<g><path style="opacity:0.929" fill="#00526f" d="M 345.5,335.5 C 351.758,335.19 357.924,335.524 364,336.5C 371.809,360.093 379.309,383.76 386.5,407.5C 381.5,407.5 376.5,407.5 371.5,407.5C 369.908,401.057 367.908,394.724 365.5,388.5C 358.167,387.167 350.833,387.167 343.5,388.5C 341.593,394.72 339.593,400.886 337.5,407C 332.845,407.499 328.179,407.666 323.5,407.5C 330.833,383.5 338.167,359.5 345.5,335.5 Z M 353.5,349.5 C 354.117,349.611 354.617,349.944 355,350.5C 357.406,359.214 359.906,367.881 362.5,376.5C 357.125,376.828 351.792,376.495 346.5,375.5C 349.653,367.042 351.987,358.375 353.5,349.5 Z"/></g>
<g><path style="opacity:0.925" fill="#00526f" d="M 450.5,335.5 C 455.167,335.5 459.833,335.5 464.5,335.5C 464.334,345.839 464.5,356.172 465,366.5C 471.921,356.324 479.088,346.324 486.5,336.5C 492.472,335.336 498.472,335.17 504.5,336C 496.5,346 488.5,356 480.5,366C 489.167,379.667 497.833,393.333 506.5,407C 500.804,407.83 495.137,407.663 489.5,406.5C 483,396.167 476.5,385.833 470,375.5C 468.71,377.792 467.043,379.792 465,381.5C 464.5,390.16 464.334,398.827 464.5,407.5C 459.833,407.5 455.167,407.5 450.5,407.5C 450.5,383.5 450.5,359.5 450.5,335.5 Z"/></g>
<g><path style="opacity:0.944" fill="#00526f" d="M 511.5,335.5 C 525.833,335.5 540.167,335.5 554.5,335.5C 554.5,339.167 554.5,342.833 554.5,346.5C 544.833,346.5 535.167,346.5 525.5,346.5C 525.5,352.5 525.5,358.5 525.5,364.5C 534.5,364.5 543.5,364.5 552.5,364.5C 552.5,368.167 552.5,371.833 552.5,375.5C 543.5,375.5 534.5,375.5 525.5,375.5C 525.5,382.167 525.5,388.833 525.5,395.5C 535.5,395.5 545.5,395.5 555.5,395.5C 555.5,399.5 555.5,403.5 555.5,407.5C 540.833,407.5 526.167,407.5 511.5,407.5C 511.5,383.5 511.5,359.5 511.5,335.5 Z"/></g>
<g><path style="opacity:0.957" fill="#00526f" d="M 560.5,335.5 C 578.833,335.5 597.167,335.5 615.5,335.5C 615.5,339.167 615.5,342.833 615.5,346.5C 608.5,346.5 601.5,346.5 594.5,346.5C 594.5,366.833 594.5,387.167 594.5,407.5C 589.833,407.5 585.167,407.5 580.5,407.5C 580.5,387.167 580.5,366.833 580.5,346.5C 573.833,346.5 567.167,346.5 560.5,346.5C 560.5,342.833 560.5,339.167 560.5,335.5 Z"/></g>
<g><path style="opacity:0.865" fill="#00526f" d="M 245.5,424.5 C 262.188,424.687 270.855,433.187 271.5,450C 270.25,468.921 260.25,477.255 241.5,475C 232.175,471.869 227.008,465.369 226,455.5C 224.002,439.443 230.502,429.11 245.5,424.5 Z M 246.5,430.5 C 255.815,430.647 261.315,435.314 263,444.5C 265.314,454.905 262.147,463.072 253.5,469C 243.504,470.991 237.004,467.158 234,457.5C 233.149,451.747 233.483,446.08 235,440.5C 237.245,435.157 241.078,431.824 246.5,430.5 Z"/></g>
<g><path style="opacity:0.869" fill="#00526f" d="M 140.5,425.5 C 147.241,425.171 153.908,425.671 160.5,427C 167.431,430.758 169.931,436.591 168,444.5C 166.421,450.41 162.588,453.91 156.5,455C 152.514,455.499 148.514,455.666 144.5,455.5C 144.5,462.167 144.5,468.833 144.5,475.5C 142.167,475.5 139.833,475.5 137.5,475.5C 137.5,459.167 137.5,442.833 137.5,426.5C 138.791,426.737 139.791,426.404 140.5,425.5 Z M 147.5,430.5 C 151.302,430.76 154.969,431.594 158.5,433C 163.957,442.918 160.957,448.752 149.5,450.5C 147.865,449.954 146.199,449.62 144.5,449.5C 144.5,443.5 144.5,437.5 144.5,431.5C 145.791,431.737 146.791,431.404 147.5,430.5 Z"/></g>
<g><path style="opacity:0.863" fill="#00526f" d="M 185.5,425.5 C 191.176,425.334 196.843,425.501 202.5,426C 213.485,429.816 216.318,436.983 211,447.5C 209.421,449.041 207.587,450.208 205.5,451C 208.106,452.938 209.939,455.438 211,458.5C 212.19,463.928 213.69,469.261 215.5,474.5C 212.966,475.777 210.466,475.777 208,474.5C 206.579,468.041 204.412,461.875 201.5,456C 197.747,454.011 193.747,453.178 189.5,453.5C 189.5,460.833 189.5,468.167 189.5,475.5C 187.167,475.5 184.833,475.5 182.5,475.5C 182.5,459.167 182.5,442.833 182.5,426.5C 183.791,426.737 184.791,426.404 185.5,425.5 Z M 193.5,430.5 C 196.946,430.889 200.279,431.722 203.5,433C 208.34,439.621 207.006,444.621 199.5,448C 196.183,448.498 192.85,448.665 189.5,448.5C 189.5,442.833 189.5,437.167 189.5,431.5C 191.099,431.768 192.432,431.434 193.5,430.5 Z"/></g>
<g><path style="opacity:0.878" fill="#00526f" d="M 287.5,425.5 C 293.176,425.334 298.843,425.501 304.5,426C 314.104,429.032 317.604,435.532 315,445.5C 313.098,450.4 309.598,453.567 304.5,455C 300.514,455.499 296.514,455.666 292.5,455.5C 292.5,462.167 292.5,468.833 292.5,475.5C 290.167,475.5 287.833,475.5 285.5,475.5C 284.87,458.595 285.537,441.928 287.5,425.5 Z M 295.5,430.5 C 305.565,430.059 309.731,434.726 308,444.5C 304.322,449.462 299.489,451.129 293.5,449.5C 292.504,443.537 292.171,437.537 292.5,431.5C 293.791,431.737 294.791,431.404 295.5,430.5 Z"/></g>
<g><path style="opacity:0.875" fill="#00526f" d="M 330.5,425.5 C 339.5,425.5 348.5,425.5 357.5,425.5C 357.5,427.5 357.5,429.5 357.5,431.5C 350.833,431.5 344.167,431.5 337.5,431.5C 337.5,436.5 337.5,441.5 337.5,446.5C 343.833,446.5 350.167,446.5 356.5,446.5C 356.5,448.5 356.5,450.5 356.5,452.5C 350.167,452.5 343.833,452.5 337.5,452.5C 337.5,458.167 337.5,463.833 337.5,469.5C 344.5,469.5 351.5,469.5 358.5,469.5C 358.5,471.5 358.5,473.5 358.5,475.5C 349.167,475.5 339.833,475.5 330.5,475.5C 330.5,458.833 330.5,442.167 330.5,425.5 Z"/></g>
<g><path style="opacity:0.868" fill="#00526f" d="M 374.5,425.5 C 380.176,425.334 385.843,425.501 391.5,426C 401.301,428.424 404.801,434.591 402,444.5C 400.356,447.311 398.19,449.644 395.5,451.5C 397.192,453.359 398.692,455.359 400,457.5C 401.505,463.519 403.005,469.519 404.5,475.5C 401.881,475.768 399.381,475.435 397,474.5C 395.54,469.531 394.206,464.531 393,459.5C 392.215,457.714 391.049,456.214 389.5,455C 386.243,453.957 382.91,453.457 379.5,453.5C 379.5,460.833 379.5,468.167 379.5,475.5C 377.167,475.5 374.833,475.5 372.5,475.5C 371.87,458.595 372.537,441.928 374.5,425.5 Z M 382.5,430.5 C 392.121,429.949 396.288,434.282 395,443.5C 390.818,447.925 385.652,449.592 379.5,448.5C 379.5,442.833 379.5,437.167 379.5,431.5C 380.791,431.737 381.791,431.404 382.5,430.5 Z"/></g>
<g><path style="opacity:0.87" fill="#00526f" d="M 412.5,425.5 C 424.833,425.5 437.167,425.5 449.5,425.5C 449.5,427.5 449.5,429.5 449.5,431.5C 444.5,431.5 439.5,431.5 434.5,431.5C 434.5,446.167 434.5,460.833 434.5,475.5C 432.167,475.5 429.833,475.5 427.5,475.5C 427.5,460.833 427.5,446.167 427.5,431.5C 422.5,431.5 417.5,431.5 412.5,431.5C 412.5,429.5 412.5,427.5 412.5,425.5 Z"/></g>
<g><path style="opacity:0.839" fill="#00526f" d="M 458.5,425.5 C 461.448,425.223 464.281,425.556 467,426.5C 470.412,433.658 474.078,440.658 478,447.5C 481.412,440.342 485.078,433.342 489,426.5C 491.737,425.39 494.571,425.223 497.5,426C 491.874,435.418 486.374,444.918 481,454.5C 480.5,461.492 480.334,468.492 480.5,475.5C 478.167,475.5 475.833,475.5 473.5,475.5C 473.666,467.826 473.5,460.159 473,452.5C 467.633,443.764 462.799,434.764 458.5,425.5 Z"/></g>
</svg>
